<svg height="512pt" viewBox="0 0 512 512" width="512pt" xmlns="http://www.w3.org/2000/svg"><path d="m512 392-316-60 60 180h256zm0 0" fill="#828282"/><path d="m120 362 60 150h76v-150zm0 0" fill="#a1a1a1"/><path d="m0 392v120h180v-150zm0 0" fill="#c0c0c0"/><path d="m512 392v-392h-256l-60 188.5 60 203.5zm0 0" fill="#ff3cad"/><path d="m0 0h256v392h-256zm0 0" fill="#fe6192"/><g fill="#434343"><path d="m105 437h30v30h-30zm0 0"/><path d="m45 437h30v30h-30zm0 0"/><path d="m240 437v30h16l10-15-10-15zm0 0"/></g><path d="m256 437h196v30h-196zm0 0" fill="#242424"/><path d="m256 131.230469-50 64.769531 50 64.769531 129.539062-64.769531zm0 0" fill="#fdf9a5"/><path d="m145 75.730469v240.539062l111-55.5v-129.539062zm0 0" fill="#fff"/></svg>